<svg xmlns="http://www.w3.org/2000/svg" xmlns:xlink="http://www.w3.org/1999/xlink"><defs>
        <clipPath id="a">
            <path fill="#fff" transform="rotate(90 21.5 21.5)" d="M0 0h70v24H0z"/>
        </clipPath>
    
        <clipPath id="a">
            <path fill="#fff" transform="rotate(90 21.5 21.5)" d="M0 0h70v24H0z"/>
        </clipPath>
    </defs><symbol id="arrow-bottom" viewBox="0 0 62 92"><g fill="none">
    <path d="M9.787 40a29.837 29.837 0 0 0-8.21 15.297 29.76 29.76 0 0 0 1.707 17.26 29.902 29.902 0 0 0 11.049 13.408A30.089 30.089 0 0 0 31 91a30.089 30.089 0 0 0 16.667-5.035 29.902 29.902 0 0 0 11.05-13.407 29.76 29.76 0 0 0 1.706-17.262A29.836 29.836 0 0 0 52.213 40" stroke="#1F1E1E" stroke-width="2" stroke-linecap="round"/>
    <g clip-path="url(#a)" stroke="#1F1E1E" stroke-width="2" stroke-linecap="round" stroke-linejoin="round">
        <path d="M31 5v60M38 58l-7 7-7-7"/>
    </g>
    
</g></symbol><symbol id="arrow-left" viewBox="0 0 92 62"><g fill="none">
    <path d="M52 9.787a29.836 29.836 0 0 0-15.297-8.21 29.76 29.76 0 0 0-17.26 1.707A29.902 29.902 0 0 0 6.034 14.333 30.09 30.09 0 0 0 1 31a30.09 30.09 0 0 0 5.035 16.667 29.903 29.903 0 0 0 13.407 11.05 29.76 29.76 0 0 0 17.261 1.706A29.836 29.836 0 0 0 52 52.213" stroke="#1F1E1E" stroke-width="2" stroke-linecap="round"/>
    <path d="M87 31H27M34 38l-7-7 7-7" stroke="#1F1E1E" stroke-width="2" stroke-linecap="round" stroke-linejoin="round"/>
</g></symbol><symbol id="arrow-right" viewBox="0 0 92 62"><g fill="none">
    <g stroke="currentColor" stroke-width="2" stroke-linecap="round" stroke-linejoin="round">
        <path d="M40 52.213a29.836 29.836 0 0 0 15.297 8.21 29.76 29.76 0 0 0 17.26-1.707 29.902 29.902 0 0 0 13.408-11.049A30.089 30.089 0 0 0 91 31a30.089 30.089 0 0 0-5.035-16.667 29.902 29.902 0 0 0-13.407-11.05 29.76 29.76 0 0 0-17.262-1.707A29.837 29.837 0 0 0 40 9.786M5 31h60"/>
        <path d="m58 24 7 7-7 7"/>
    </g>
</g></symbol><symbol id="check" viewBox="0 0 26 26"><g fill="none">
    <circle cx="13" cy="13" r="13" fill="#1F1E1E"/>
    <path d="M19.71 8.21a1 1 0 0 0-1.42 0l-7.45 7.46-3.13-3.14A1.02 1.02 0 1 0 6.29 14l3.84 3.84a1.002 1.002 0 0 0 1.42 0l8.16-8.16a1 1 0 0 0 0-1.47Z" fill="#fff"/>
</g></symbol><symbol id="ellipse" viewBox="0 0 18 18"><g fill="none">
    <circle cx="9" cy="9" r="9" fill="#BC3324"/>
</g></symbol><symbol id="ex_mark" viewBox="0 0 22 22"><g fill="none">
    <path fill-rule="evenodd" clip-rule="evenodd" d="M11 22c6.075 0 11-4.925 11-11S17.075 0 11 0 0 4.925 0 11s4.925 11 11 11Zm-1-6.6a1 1 0 0 1 1-1h.011a1 1 0 1 1 0 2H11a1 1 0 0 1-1-1Zm2-8.8a1 1 0 1 0-2 0V11a1 1 0 1 0 2 0V6.6Z" fill="#BC3324"/>
</g></symbol><symbol id="hands" viewBox="0 0 22 18"><g fill="none">
    <path d="M15.48 7.41c-.39.39-1.04.39-1.43 0L9.58 2.95 2.53 9.99l-.66-.63a3 3 0 0 1 0-4.24L6.11.88a3 3 0 0 1 4.24 0L15.48 6c.39.39.39 1.02 0 1.41Zm.7-2.12c.78.78.78 2.05 0 2.83-1.27 1.27-2.61.22-2.83 0L9.59 4.36 4.02 9.93a.996.996 0 0 0 0 1.41c.39.39 1.02.39 1.42 0l4.62-4.62.71.71-4.62 4.62a.996.996 0 0 0 0 1.41c.39.39 1.02.39 1.42 0l4.62-4.62.71.71-4.62 4.62a.997.997 0 0 0 1.41 1.41l4.62-4.62.71.71-4.62 4.62a.998.998 0 0 0 .705 1.702.997.997 0 0 0 .705-.292l8.32-8.34a3 3 0 0 0 0-4.24L15.89.88a3.001 3.001 0 0 0-4.18-.06l4.47 4.47Z" fill="#BC3324"/>
</g></symbol><symbol id="house" viewBox="0 0 18 21"><g fill="none">
    <path d="m17 7-6-5.26a3 3 0 0 0-4 0L1 7a3 3 0 0 0-1 2.26V18a3 3 0 0 0 3 3h12a3 3 0 0 0 3-3V9.25A3 3 0 0 0 17 7Zm-6 12H7v-5a1 1 0 0 1 1-1h2a1 1 0 0 1 1 1v5Zm5-1a1 1 0 0 1-1 1h-2v-5a3 3 0 0 0-3-3H8a3 3 0 0 0-3 3v5H3a1 1 0 0 1-1-1V9.25a1 1 0 0 1 .34-.75l6-5.25a1 1 0 0 1 1.32 0l6 5.25a1 1 0 0 1 .34.75V18Z" fill="#BC3324"/>
    <path d="M16 18a1 1 0 0 1-1 1h-2v-5a3 3 0 0 0-3-3H8a3 3 0 0 0-3 3v5H3a1 1 0 0 1-1-1V9.25a1 1 0 0 1 .34-.75l6-5.25a1 1 0 0 1 1.32 0l6 5.25a1 1 0 0 1 .34.75V18Z" fill="#BC3324"/>
</g></symbol><symbol id="Insta" viewBox="0 0 58 58"><g fill="none">
    <path fill-rule="evenodd" clip-rule="evenodd" d="M29 58c16.016 0 29-12.984 29-29S45.016 0 29 0 0 12.984 0 29s12.984 29 29 29Zm-3.535-32.535a5 5 0 1 1 7.07 7.07 5 5 0 0 1-7.07-7.07Zm1.238 5.83a3.248 3.248 0 1 0 4.594-4.593 3.248 3.248 0 0 0-4.594 4.594ZM34 25a1 1 0 1 0 0-2 1 1 0 0 0 0 2Zm3.317-4.323a5.106 5.106 0 0 1 1.153 1.767c.297.787.455 1.618.468 2.459.062 1.06.062 1.405.062 4.114 0 2.709-.014 3.047-.062 4.114a7.296 7.296 0 0 1-.466 2.424 5.115 5.115 0 0 1-2.924 2.92 7.355 7.355 0 0 1-2.428.464C32.06 39 31.712 39 29 39s-3.05-.014-4.12-.061a7.321 7.321 0 0 1-2.427-.499 5.12 5.12 0 0 1-2.925-2.919 7.307 7.307 0 0 1-.466-2.425C19 32.035 19 31.69 19 28.982c0-2.709.014-3.047.062-4.114a7.293 7.293 0 0 1 .465-2.424 5.1 5.1 0 0 1 2.925-2.918 7.287 7.287 0 0 1 2.425-.466c1.061-.06 1.409-.06 4.12-.06 2.713 0 3.052.013 4.121.06.83.017 1.65.174 2.428.466a5.116 5.116 0 0 1 1.77 1.15Zm-.545 14.209c.221-.6.338-1.233.346-1.872v.001h.012c.047-1.06.047-1.35.047-4.052 0-2.702-.012-2.998-.06-4.053a5.624 5.624 0 0 0-.345-1.85 3.316 3.316 0 0 0-1.901-1.899 5.516 5.516 0 0 0-1.855-.345c-1.074-.06-1.352-.06-4.058-.06-2.707 0-3.003.013-4.06.06a5.571 5.571 0 0 0-1.853.345 3.314 3.314 0 0 0-1.91 1.899 5.579 5.579 0 0 0-.345 1.87c-.058 1.075-.058 1.351-.058 4.053s.01 2.999.058 4.052c.01.632.127 1.258.346 1.851a3.309 3.309 0 0 0 1.909 1.897c.593.22 1.22.337 1.853.345 1.076.061 1.352.061 4.06.061 2.705 0 3.003-.012 4.058-.06a5.544 5.544 0 0 0 1.855-.346 3.32 3.32 0 0 0 1.901-1.897Z" fill="#1F1E1E"/>
</g></symbol><symbol id="LENNI" viewBox="0 0 1920 325"><g fill="none">
    <path d="M485.389 317.073V0H0v325h647.345v-7.927H485.389ZM675.453 325h200.745v-7.927H713.443V159.935h126.765v-7.926H713.443V7.927H876V0H675.453v325ZM941.896 325V8.393c34.39 0 141.564 13.989 149.554 194.907V325h37.99V0h-37.99v143.615c-9.59-48.027-28.39-82.998-57.18-108.177C998.68 3.73 958.291 0 941.896 0h-37.99v325h37.99ZM1207.45 325V8.393c34.39 0 141.56 13.989 149.56 194.907V325H1395V0h-37.99v143.615c-9.6-48.027-28.4-82.998-57.19-108.177C1264.23 3.73 1223.84 0 1207.45 0h-37.99v325h37.99ZM1473 0h-37.99v325H1920V0h-447Z" fill="#1F1E1E"/>
</g></symbol><symbol id="logo" viewBox="0 0 202 147"><g fill="none">
    <path fill="#1F1E1E" d="M0 0h147v147H0z"/>
    <path d="M39.965 72.439H26.633V50.032h-.032v-.033h-4.686V73h18.05v-.561ZM43.932 73h18.117v-.561H48.618V61.285h10.494v-.594H48.618V50.56h13.43v-.561H43.933V73ZM70.7 73V50.56c2.87 0 11.714 1.089 12.374 13.893V73h4.686V49.999h-4.686v10.329C81.655 54.19 77.167 49.999 70.7 49.999h-4.686V73H70.7ZM97.39 73V50.56c2.87 0 11.714 1.089 12.374 13.893V73h4.686V49.999h-4.686v10.329c-1.419-6.138-5.907-10.329-12.375-10.329h-4.686V73h4.686ZM119.393 73h4.686V49.999h-4.686V73Z" fill="#fff"/>
    <path fill="#BC3324" d="M81 92h121v42H81z"/>
    <path d="M108.922 124h.54l2.94-8.55h8.55l3.33 8.55h4.47l-8.1-20.91h-4.53l-7.2 20.91Zm7.5-20.25 4.35 11.19h-8.19l3.84-11.19ZM132.644 103.09V124h4.26v-7.23h5.07l4.89 7.2h4.86l-5.16-7.65c3-.78 5.28-2.64 5.28-6.81 0-5.22-3.81-6.87-8.25-6.87-4.68 0-6.03 3.51-6.69 7.41v-6.96h-4.26Zm5.43 4.38c.81-2.94 2.91-4.14 4.77-4.29 4.47-.42 4.65 2.43 4.65 6.33 0 6.33-3.36 6.75-6.24 6.75h-4.35s-.12-4.14 1.17-8.79ZM162.084 103.6l.03 20.4h4.26v-20.4h8.61v-.51h-21.51v.51h8.61Z" fill="#fff"/>
</g></symbol><symbol id="logout" viewBox="0 0 24 24"><g fill="none">
    <path d="m10 17 5-5-5-5M15 12H3M15 3h4a2 2 0 0 1 2 2v14a2 2 0 0 1-2 2h-4" stroke="#1F1E1E" stroke-width="2" stroke-linecap="round" stroke-linejoin="round"/>
</g></symbol><symbol id="phone" viewBox="0 0 20 20"><g fill="none">
    <path d="M20 14.92v3a2 2 0 0 1-2.18 2 19.791 19.791 0 0 1-8.63-3.07 19.5 19.5 0 0 1-6-6A19.79 19.79 0 0 1 .12 2.18 2 2 0 0 1 2.11 0h3a2 2 0 0 1 2 1.72c.127.96.361 1.903.7 2.81a2 2 0 0 1-.45 2.11L6.09 7.91a16 16 0 0 0 6 6l1.27-1.27a2 2 0 0 1 2.11-.45c.907.339 1.85.574 2.81.7A2 2 0 0 1 20 14.92Z" fill="#BC3324"/>
</g></symbol><symbol id="star" viewBox="0 0 21 20"><g fill="none">
    <path d="M19.663 6.772a1 1 0 0 1 .33.462 1 1 0 0 1-.32 1.02l-4.13 4 1 5.68a1 1 0 0 1-.99 1.19.93.93 0 0 1-.46-.12l-5.1-2.68-5.12 2.67a1 1 0 0 1-1.45-1.07l1-5.68-4.13-4a1 1 0 0 1-.25-1 1 1 0 0 1 .81-.68l5.69-.84 2.55-5.16a1 1 0 0 1 1.8 0l2.55 5.17 5.69.83a1 1 0 0 1 .53.208Z" fill="#BC3324"/>
</g></symbol><symbol id="tagree" viewBox="0 0 57 17"><g fill="none">
    <path d="M6.301 12.695H4.107a3.15 3.15 0 0 1-1.276-.262 3.309 3.309 0 0 1-1.037-.704 3.6 3.6 0 0 1-.698-1.066 3.227 3.227 0 0 1-.26-1.288V.604L3.23 0v3.843h1.396l.598 2.414H3.23v3.118c0 .255.086.47.26.644a.84.84 0 0 0 .617.261h1.596l.598 2.415ZM16.7 2.615v10.08h-2.393v-5.03c0-.805-.28-1.489-.838-2.052a2.757 2.757 0 0 0-2.034-.845 2.91 2.91 0 0 0-1.117.221 2.862 2.862 0 0 0-.917.624 2.806 2.806 0 0 0-.837 2.052c0 .791.279 1.469.837 2.032.266.282.572.496.918.644.358.134.73.201 1.116.201.4 0 .758-.067 1.077-.201l.858 2.152c-.612.309-1.323.463-2.134.463a5.1 5.1 0 0 1-2.034-.402 5.065 5.065 0 0 1-1.596-1.147 5.253 5.253 0 0 1-1.057-1.69 5.568 5.568 0 0 1-.378-2.052c0-.738.126-1.428.378-2.072a5.252 5.252 0 0 1 1.057-1.69 4.807 4.807 0 0 1 1.596-1.127 4.892 4.892 0 0 1 2.034-.422c.651 0 1.23.1 1.735.302.505.2.95.456 1.336.764v-.805H16.7ZM28.326 11.689c0 .724-.14 1.408-.419 2.052a5.188 5.188 0 0 1-1.116 1.69 5.41 5.41 0 0 1-1.675 1.147 5.03 5.03 0 0 1-2.054.422 5.053 5.053 0 0 1-1.696-.282 5.279 5.279 0 0 1-1.475-.804l1.735-1.73c.425.268.904.402 1.436.402.81 0 1.488-.289 2.034-.865.558-.564.837-1.24.837-2.032V7.645c0-.778-.279-1.462-.837-2.052a2.757 2.757 0 0 0-2.034-.845c-.771 0-1.45.282-2.035.845-.558.59-.837 1.274-.837 2.052 0 .805.28 1.489.837 2.052.585.563 1.264.845 2.035.845.398 0 .757-.067 1.076-.201l.898 2.253a5.12 5.12 0 0 1-1.935.362h-.04a5.194 5.194 0 0 1-2.034-.402 5.41 5.41 0 0 1-2.811-2.837 5.151 5.151 0 0 1-.42-2.072 5.9 5.9 0 0 1 .36-2.072c.24-.644.572-1.207.997-1.69a4.65 4.65 0 0 1 1.555-1.127 4.71 4.71 0 0 1 1.995-.422c.69 0 1.303.107 1.834.322.532.2.997.456 1.396.764v-.784h2.393v9.053ZM31.92 3.4a5.173 5.173 0 0 1 1.257-.764 4.132 4.132 0 0 1 1.615-.302v2.414c-.797 0-1.476.282-2.034.845-.558.59-.837 1.274-.837 2.052v5.05h-2.393V2.615h2.393V3.4ZM42.85 8.872h-5.224c.133.309.325.584.578.825.28.282.592.496.937.644.346.134.712.201 1.097.201.545 0 1.03-.127 1.456-.382l2.493 1.006a5.143 5.143 0 0 1-1.735 1.327 5.28 5.28 0 0 1-2.214.463 5.245 5.245 0 0 1-2.054-.402 5.41 5.41 0 0 1-2.812-2.837 5.322 5.322 0 0 1-.399-2.052c0-.738.133-1.428.4-2.072a5.462 5.462 0 0 1 1.136-1.69 5.136 5.136 0 0 1 1.675-1.127 5.03 5.03 0 0 1 2.054-.422c.731 0 1.416.14 2.054.422a5.136 5.136 0 0 1 1.675 1.127c.479.483.851 1.046 1.117 1.69.28.644.419 1.334.419 2.072 0 .43-.047.832-.14 1.207H42.85Zm-2.612-4.104c-.771 0-1.449.282-2.034.845a2.73 2.73 0 0 0-.578.845h5.224a2.732 2.732 0 0 0-.578-.845 2.757 2.757 0 0 0-2.034-.845ZM54.185 8.872H48.96c.133.309.326.584.578.825.28.282.592.496.937.644.346.134.712.201 1.097.201.545 0 1.03-.127 1.456-.382l2.493 1.006a5.143 5.143 0 0 1-1.735 1.327 5.281 5.281 0 0 1-2.214.463 5.245 5.245 0 0 1-2.054-.402 5.41 5.41 0 0 1-2.812-2.837 5.322 5.322 0 0 1-.398-2.052c0-.738.133-1.428.398-2.072a5.464 5.464 0 0 1 1.137-1.69 5.136 5.136 0 0 1 1.675-1.127 5.03 5.03 0 0 1 2.054-.422c.731 0 1.416.14 2.054.422a5.136 5.136 0 0 1 1.675 1.127c.479.483.851 1.046 1.117 1.69.28.644.419 1.334.419 2.072 0 .43-.047.832-.14 1.207h-2.512Zm-2.613-4.104c-.77 0-1.449.282-2.034.845a2.73 2.73 0 0 0-.578.845h5.225a2.73 2.73 0 0 0-.579-.845 2.757 2.757 0 0 0-2.034-.845Z" fill="currentColor"/>
</g></symbol><symbol id="user" viewBox="0 0 21 18"><g fill="none">
    <path d="M11.3 9.22A4.92 4.92 0 0 0 13 5.5a5 5 0 0 0-10 0 4.92 4.92 0 0 0 1.7 3.72A8 8 0 0 0 0 16.5a1 1 0 1 0 2 0 6 6 0 1 1 12 0 1 1 0 0 0 2 0 8 8 0 0 0-4.7-7.28ZM8 8.5a3 3 0 1 1 0-6 3 3 0 0 1 0 6Zm11.71-2.37a1 1 0 0 0-1.42 0l-2 2-.62-.63a1 1 0 1 0-1.42 1.41l1.34 1.34a1 1 0 0 0 1.41 0l2.67-2.67a1 1 0 0 0 .04-1.45Z" fill="#1F1E1E"/>
</g></symbol><symbol id="view"><g fill="none">
    <path d="M9.787 40a29.837 29.837 0 0 0-8.21 15.297 29.76 29.76 0 0 0 1.707 17.26 29.902 29.902 0 0 0 11.049 13.408A30.089 30.089 0 0 0 31 91a30.089 30.089 0 0 0 16.667-5.035 29.902 29.902 0 0 0 11.05-13.407 29.76 29.76 0 0 0 1.706-17.262A29.836 29.836 0 0 0 52.213 40" stroke="#1F1E1E" stroke-width="2" stroke-linecap="round"/>
    <g clip-path="url(#a)" stroke="#1F1E1E" stroke-width="2" stroke-linecap="round" stroke-linejoin="round">
        <path d="M31 5v60M38 58l-7 7-7-7"/>
    </g>
    
</g></symbol><symbol id="VK" viewBox="0 0 58 58"><g fill="none">
    <path fill-rule="evenodd" clip-rule="evenodd" d="M58 29c0 16.016-12.984 29-29 29S0 45.016 0 29 12.984 0 29 0s29 12.984 29 29ZM22.71 19A3.725 3.725 0 0 0 19 22.71v12.58A3.725 3.725 0 0 0 22.71 39h12.58A3.725 3.725 0 0 0 39 35.29V22.71A3.725 3.725 0 0 0 35.29 19H22.71Zm12.58 1.818c1.054 0 1.892.838 1.892 1.893v12.578a1.881 1.881 0 0 1-1.893 1.893H22.711a1.88 1.88 0 0 1-1.893-1.893V22.711c0-1.055.838-1.893 1.893-1.893h12.578ZM34.326 26c.398 0 .48.172.398.406-.167.644-1.767 2.541-1.767 2.541-.14.188-.195.281 0 .492.069.08.215.201.382.34.173.142.367.302.522.456.564.535.989.985 1.108 1.295.108.312-.08.47-.455.47h-1.313c-.352 0-.529-.166-.911-.524a14.813 14.813 0 0 0-.626-.562c-.78-.632-1.113-.714-1.308-.714-.264 0-.343.063-.343.379v.991c0 .272-.103.43-.938.43-1.391 0-2.919-.711-4.003-2.022C23.445 28.058 23 26.605 23 26.313c0-.164.075-.313.45-.313h1.314c.335 0 .461.123.585.43.643 1.574 1.725 2.95 2.17 2.95.167 0 .244-.064.244-.421V27.33c-.03-.463-.222-.663-.365-.812-.088-.091-.157-.163-.157-.265 0-.124.126-.254.334-.254h2.064c.278 0 .37.125.37.406v2.19c0 .234.126.316.21.316.166 0 .305-.082.611-.34.946-.89 1.613-2.26 1.613-2.26.084-.163.238-.312.572-.312h1.312Z" style="fill:#1f1e1e"/>
</g></symbol><symbol id="x" viewBox="0 0 24 24"><g fill="none">
    <path d="M18 6 6 18M6 6l12 12" stroke="#fff" stroke-width="2" stroke-linecap="round" stroke-linejoin="round"/>
</g></symbol><symbol id="&#x43a;&#x430;&#x440;&#x442;&#x430;_&#x437;&#x430;&#x432;&#x435;&#x434;&#x435;&#x43d;&#x438;&#x44f;"><g fill="none">
    <g class="scene__dance-floor">
        <path d="M462 82.5c0 38.936-31.564 70.5-70.5 70.5S321 121.436 321 82.5 352.564 12 391.5 12 462 43.564 462 82.5Z" fill="#1F1E1E"/>
        <path d="M362.453 89h-1.867v-9.82h-3.359v-1.602h8.585v1.602h-3.359V89Zm10.328 0-.367-1.203h-.062c-.417.526-.836.885-1.258 1.078-.422.188-.964.281-1.625.281-.849 0-1.513-.229-1.992-.687-.474-.459-.711-1.107-.711-1.946 0-.89.33-1.562.992-2.015.661-.453 1.669-.7 3.023-.742l1.492-.047v-.461c0-.552-.13-.964-.39-1.235-.255-.276-.654-.414-1.195-.414-.443 0-.868.066-1.274.196s-.797.283-1.172.46l-.594-1.312c.469-.245.982-.43 1.54-.555a6.944 6.944 0 0 1 1.578-.195c1.099 0 1.927.24 2.484.719.562.479.844 1.232.844 2.258V89h-1.313Zm-2.734-1.25c.667 0 1.2-.185 1.601-.555.407-.375.61-.898.61-1.57v-.75l-1.11.047c-.864.031-1.494.177-1.89.437-.391.256-.586.649-.586 1.18 0 .385.114.685.344.898.229.209.573.313 1.031.313Zm8.445-7.39v3.468h4.07V80.36h1.836V89h-1.836v-3.727h-4.07V89h-1.836v-8.64h1.836Zm16.235 7.218h1.25v4.461h-1.727V89h-7.219v-8.64h1.836v7.187h4.024v-7.188h1.836v7.22Zm10.375-7.219V89h-1.844v-7.188h-3.875V89h-1.836v-8.64h7.555Zm10.296 4.305c0 1.412-.362 2.513-1.086 3.305-.723.791-1.731 1.187-3.023 1.187-.807 0-1.521-.182-2.141-.547a3.612 3.612 0 0 1-1.429-1.57c-.334-.682-.5-1.474-.5-2.375 0-1.401.359-2.495 1.078-3.281.719-.787 1.732-1.18 3.039-1.18 1.25 0 2.24.404 2.969 1.211.729.802 1.093 1.885 1.093 3.25Zm-6.289 0c0 1.995.737 2.992 2.211 2.992 1.459 0 2.188-.997 2.188-2.992 0-1.974-.735-2.96-2.203-2.96-.771 0-1.331.254-1.68.765-.344.51-.516 1.242-.516 2.195ZM424.617 89h-1.851v-7.203h-2.383c-.146 1.854-.344 3.302-.594 4.344-.245 1.041-.568 1.802-.969 2.28-.396.48-.911.72-1.547.72-.401 0-.737-.058-1.007-.172V87.53c.192.073.385.11.578.11.531 0 .948-.597 1.25-1.79.307-1.197.547-3.028.718-5.492h5.805V89Z" fill="#fff"/>
    </g>
    <g class="scene__table scene__table--red">
        <g class="scene__table-group" stroke="#BC3324">
            <path d="M507.5 35.5h83v28h-83z"/>
            <circle cx="527" cy="20" r="11.5"/>
            <circle cx="570" cy="20" r="11.5"/>
            <circle cx="606" cy="48" r="11.5"/>
            <circle cx="570" cy="79" r="11.5"/>
            <circle cx="527" cy="79" r="11.5"/>
        </g>
        <path class="scene__table-num" d="M552.199 56h-3.916v-7.773c0-.352.003-.74.01-1.162.013-.424.029-.805.049-1.143a6.41 6.41 0 0 1-.479.518c-.143.143-.283.276-.42.4l-1.621 1.338-2.002-2.461 4.903-3.994h3.476V56Z" fill="#BC3324"/>
        <path fill="transparent" d="M507 8h111v83H507z"/>
    </g>
    <g class="scene__table">
        <g class="scene__table-group" stroke="#1F1E1E">
            <path d="M712.5 4.5h40v93h-40z"/>
            <circle cx="697" cy="16" r="11.5"/>
            <circle cx="768" cy="17" r="11.5"/>
            <circle cx="697" cy="49" r="11.5"/>
            <circle cx="768" cy="50" r="11.5"/>
            <circle cx="697" cy="82" r="11.5"/>
            <circle cx="768" cy="83" r="11.5"/>
            <circle cx="733" cy="113" r="11.5"/>
        </g>
        <path class="scene__table-num" d="M737.957 60h-10.361v-2.54l3.486-3.525c.996-1.041 1.647-1.75 1.953-2.128.306-.385.518-.713.635-.987.124-.273.185-.56.185-.86 0-.37-.12-.663-.361-.878-.241-.215-.579-.322-1.015-.322-.45 0-.905.13-1.368.39-.455.254-.973.632-1.552 1.133l-2.12-2.48c.736-.658 1.355-1.127 1.856-1.406a6.519 6.519 0 0 1 1.631-.655 8.132 8.132 0 0 1 1.992-.224c.924 0 1.748.162 2.471.488.729.325 1.292.79 1.689 1.396.404.6.606 1.273.606 2.022 0 .56-.072 1.077-.215 1.553a5.443 5.443 0 0 1-.645 1.406 9.645 9.645 0 0 1-1.172 1.445c-.481.508-1.513 1.471-3.095 2.89v.098h5.4V60Z" fill="#1F1E1E"/>
        <path fill="transparent" d="M685 4h95v121h-95z"/>
    </g>
    <g class="scene__table">
        <g class="scene__table-group" stroke="#1F1E1E">
            <path d="M712.5 185.5h40v93h-40z"/>
            <circle cx="697" cy="197" r="11.5"/>
            <circle cx="768" cy="198" r="11.5"/>
            <circle cx="697" cy="230" r="11.5"/>
            <circle cx="768" cy="231" r="11.5"/>
            <circle cx="697" cy="263" r="11.5"/>
            <circle cx="768" cy="264" r="11.5"/>
            <circle cx="733" cy="294" r="11.5"/>
        </g>
        <path class="scene__table-num" d="M737.479 229.818c0 .886-.271 1.647-.811 2.286-.54.631-1.322 1.09-2.344 1.376v.059c2.383.3 3.574 1.426 3.574 3.379 0 1.328-.527 2.373-1.582 3.135-1.048.761-2.506 1.142-4.375 1.142a12.86 12.86 0 0 1-2.138-.166 11.1 11.1 0 0 1-2.119-.605v-3.203a8.709 8.709 0 0 0 1.904.713c.651.149 1.25.224 1.797.224.846 0 1.461-.117 1.845-.351.391-.241.586-.616.586-1.123 0-.391-.101-.691-.302-.899-.202-.215-.528-.374-.977-.478-.449-.111-1.035-.166-1.758-.166h-.879v-2.901h.899c1.959 0 2.939-.501 2.939-1.504 0-.377-.146-.657-.439-.84-.287-.182-.674-.273-1.162-.273-.912 0-1.856.306-2.832.918l-1.602-2.578a7.773 7.773 0 0 1 2.315-1.113c.794-.222 1.702-.332 2.724-.332 1.478 0 2.637.293 3.477.878.84.586 1.26 1.394 1.26 2.422Z" fill="#1F1E1E"/>
        <path fill="transparent" d="M685 185h95v121h-95z"/>
    </g>
    <g class="scene__table scene__table--red">
        <g class="scene__table-group" stroke="#BC3324">
            <path d="M507.5 182.5h83v28h-83z"/>
            <circle cx="527" cy="167" r="11.5"/>
            <circle cx="570" cy="167" r="11.5"/>
            <circle cx="606" cy="195" r="11.5"/>
            <circle cx="570" cy="226" r="11.5"/>
            <circle cx="527" cy="226" r="11.5"/>
        </g>
        <path class="scene__table-num" d="M554.416 199.236h-1.572V202h-3.809v-2.764h-5.693v-2.832l5.937-8.681h3.565v8.632h1.572v2.881Zm-5.381-2.881v-1.66c0-.312.01-.732.029-1.259.026-.534.046-.814.059-.84h-.107c-.222.501-.472.97-.752 1.406l-1.582 2.353h2.353Z" fill="#BC3324"/>
        <path fill="transparent" d="M507 155h111v83H507z"/>
    </g>
    <g class="scene__table">
        <g class="scene__table-group" stroke="#1F1E1E">
            <path d="M494.5 278.5h40v93h-40z"/>
            <circle cx="479" cy="290" r="11.5"/>
            <circle cx="550" cy="291" r="11.5"/>
            <circle cx="479" cy="323" r="11.5"/>
            <circle cx="550" cy="324" r="11.5"/>
            <circle cx="479" cy="356" r="11.5"/>
            <circle cx="550" cy="357" r="11.5"/>
            <circle cx="515" cy="387" r="11.5"/>
        </g>
        <path class="scene__table-num" d="M515.484 322.645c.821 0 1.56.192 2.217.576a3.869 3.869 0 0 1 1.543 1.611c.371.697.557 1.501.557 2.412 0 1.595-.482 2.819-1.446 3.672-.957.853-2.408 1.279-4.355 1.279-1.667 0-3.027-.257-4.082-.771v-3.164c.566.26 1.204.475 1.914.644.716.17 1.331.254 1.846.254.716 0 1.266-.15 1.65-.449.384-.306.576-.755.576-1.348 0-.547-.195-.973-.586-1.279-.39-.306-.983-.459-1.777-.459-.605 0-1.26.114-1.963.342l-1.416-.703.537-7.539h8.145v3.213h-4.864l-.175 1.884c.507-.097.869-.149 1.084-.156.215-.013.413-.019.595-.019Z" fill="#1F1E1E"/>
        <path fill="transparent" d="M467 278h95v121h-95z"/>
    </g>
    <g class="scene__table">
        <g class="scene__table-group" stroke="#1F1E1E">
            <path d="M273.5 278.5h40v93h-40z"/>
            <circle cx="258" cy="290" r="11.5"/>
            <circle cx="329" cy="291" r="11.5"/>
            <circle cx="258" cy="323" r="11.5"/>
            <circle cx="329" cy="324" r="11.5"/>
            <circle cx="258" cy="356" r="11.5"/>
            <circle cx="329" cy="357" r="11.5"/>
            <circle cx="294" cy="387" r="11.5"/>
        </g>
        <path class="scene__table-num" d="M288.684 326.965c0-1.992.283-3.604.849-4.834.573-1.237 1.413-2.149 2.52-2.735 1.113-.585 2.483-.878 4.111-.878.579 0 1.257.055 2.031.166v3.017a11.335 11.335 0 0 0-2.119-.185c-1.289 0-2.249.283-2.881.849-.631.567-.976 1.491-1.035 2.774h.117c.586-1.107 1.527-1.66 2.823-1.66 1.269 0 2.252.41 2.949 1.23.703.814 1.055 1.95 1.055 3.408 0 1.569-.443 2.809-1.329 3.721-.885.905-2.122 1.357-3.711 1.357-1.686 0-3.004-.547-3.955-1.64-.95-1.094-1.425-2.624-1.425-4.59Zm5.293 3.174c.41 0 .742-.153.996-.459.26-.313.39-.808.39-1.485 0-1.159-.449-1.738-1.347-1.738-.443 0-.804.15-1.084.449-.274.3-.411.664-.411 1.094 0 .625.134 1.139.401 1.543.267.397.618.596 1.055.596Z" fill="#1F1E1E"/>
        <path opacity=".01" fill="transparent" d="M246 278h95v121h-95z"/>
    </g>
    <g class="scene__table scene__table--red">
        <g class="scene__table-group" stroke="#BC3324">
            <path d="M320.5 183.5h83v28h-83z"/>
            <circle cx="383" cy="227" r="11.5"/>
            <circle cx="419" cy="197" r="11.5"/>
            <circle cx="305" cy="197" r="11.5"/>
            <circle cx="340" cy="227" r="11.5"/>
        </g>
        <path class="scene__table-num" d="m358.041 204 4.902-11.084h-6.181v-3.193h10.302v2.275L362.035 204h-3.994Z" fill="#BC3324"/>
        <path fill="transparent" d="M293 183h138v56H293z"/>
    </g>
    <g class="scene__table scene__table--red">
        <g class="scene__table-group" stroke="#BC3324">
            <path d="M187.5 169.5h61v36h-61z"/>
            <circle cx="216" cy="221" r="11.5" transform="rotate(-180 216 221)"/>
            <circle cx="171" cy="185" r="11.5" transform="rotate(-180 171 185)"/>
            <circle cx="216" cy="154" r="11.5" transform="rotate(-180 216 154)"/>
        </g>
        <path class="scene__table-num" d="M215.898 180.518c.944 0 1.771.127 2.481.38.716.254 1.276.642 1.68 1.163.403.514.605 1.162.605 1.943 0 .573-.107 1.077-.322 1.514a3.575 3.575 0 0 1-.869 1.132 5.698 5.698 0 0 1-1.27.83c.449.254.895.551 1.338.889.443.339.811.739 1.104 1.201.293.456.439 1 .439 1.631 0 .762-.186 1.445-.557 2.051-.371.599-.94 1.074-1.709 1.426-.768.345-1.754.517-2.959.517-1.204 0-2.19-.166-2.959-.498-.768-.332-1.334-.794-1.699-1.386-.358-.599-.537-1.29-.537-2.071 0-.664.111-1.224.332-1.679.228-.456.537-.844.928-1.163a7.33 7.33 0 0 1 1.338-.859 7.026 7.026 0 0 1-1.094-.908 3.956 3.956 0 0 1-.791-1.162 3.601 3.601 0 0 1-.293-1.485c0-.768.205-1.409.615-1.923.41-.515.977-.899 1.699-1.153.73-.26 1.563-.39 2.5-.39Zm-1.699 10.566c0 .397.143.719.43.967.286.247.683.371 1.191.371.593 0 1.026-.111 1.299-.332.28-.228.42-.537.42-.928 0-.293-.088-.557-.264-.791a2.851 2.851 0 0 0-.595-.625 5.613 5.613 0 0 0-.596-.41l-.264-.156a5.234 5.234 0 0 0-.81.508c-.241.182-.436.39-.586.624-.15.228-.225.486-.225.772Zm1.68-7.783a1.28 1.28 0 0 0-.83.283c-.235.182-.352.433-.352.752 0 .208.049.404.147.586.104.176.241.338.41.488.176.15.371.287.586.41a7.12 7.12 0 0 0 .556-.361 1.81 1.81 0 0 0 .459-.469c.124-.182.186-.4.186-.654 0-.319-.117-.57-.352-.752a1.227 1.227 0 0 0-.81-.283Z" fill="#BC3324"/>
        <path fill="transparent" d="M159 142h90v91h-90z"/>
    </g>
    <g class="scene__table scene__table--red">
        <g class="scene__table-group" stroke="#BC3324">
            <path d="M222.5 27.5h61v36h-61z"/>
            <circle cx="251" cy="79" r="11.5" transform="rotate(-180 251 79)"/>
            <circle cx="206" cy="43" r="11.5" transform="rotate(-180 206 43)"/>
            <circle cx="251" cy="12" r="11.5" transform="rotate(-180 251 12)"/>
        </g>
        <path class="scene__table-num" d="M256.064 45.256c0 2.793-.602 4.814-1.806 6.064-1.205 1.25-3.132 1.875-5.781 1.875-.873 0-1.537-.032-1.993-.097V50.04c.56.104 1.12.156 1.68.156 1.38 0 2.445-.283 3.193-.85.749-.572 1.156-1.474 1.221-2.704h-.117c-.254.468-.505.807-.752 1.015-.247.209-.55.368-.908.479-.358.11-.804.166-1.338.166-1.237 0-2.204-.414-2.901-1.24-.696-.827-1.044-1.967-1.044-3.419 0-1.581.449-2.822 1.347-3.72.905-.899 2.142-1.348 3.711-1.348 1.745 0 3.096.58 4.053 1.739.957 1.158 1.435 2.805 1.435 4.94Zm-5.38-3.594a1.31 1.31 0 0 0-1.036.46c-.26.305-.39.797-.39 1.474 0 .534.114.96.342 1.279.227.313.576.469 1.045.469.423 0 .791-.153 1.103-.46.313-.305.469-.673.469-1.103 0-.58-.147-1.077-.44-1.494-.286-.417-.651-.625-1.093-.625Z" fill="#BC3324"/>
        <path fill="transparent" d="M194 0h90v91h-90z"/>
    </g>
    <g class="scene__table">
        <g class="scene__table-group" stroke="#1F1E1E">
            <path d="M110.5 65V.5h31v92h-126v-27h95V65Z"/>
            <circle cx="27" cy="50" r="11.5"/>
            <circle cx="61" cy="50" r="11.5"/>
            <circle cx="94" cy="50" r="11.5"/>
            <circle cx="94" cy="16" r="11.5"/>
        </g>
        <path class="scene__table-num" d="M121.199 85h-3.916v-7.773c0-.352.003-.74.01-1.163.013-.423.029-.804.049-1.142a6.41 6.41 0 0 1-.479.517c-.143.144-.283.277-.42.4l-1.621 1.339-2.002-2.461 4.903-3.994h3.476V85Zm13.535-7.12c0 1.147-.091 2.172-.273 3.077-.182.899-.475 1.663-.879 2.295A3.929 3.929 0 0 1 132 84.697c-.658.332-1.465.498-2.422.498-1.191 0-2.168-.29-2.93-.869-.761-.586-1.324-1.422-1.689-2.51-.358-1.093-.537-2.405-.537-3.935 0-1.543.163-2.862.488-3.955.332-1.1.876-1.944 1.631-2.53.755-.585 1.768-.878 3.037-.878 1.192 0 2.165.293 2.92.879.762.579 1.325 1.419 1.69 2.519.364 1.094.546 2.415.546 3.965Zm-6.474 0c0 .932.032 1.713.097 2.345.072.631.202 1.106.391 1.425.195.313.472.47.83.47a.903.903 0 0 0 .82-.47c.189-.319.319-.79.391-1.416.072-.631.107-1.416.107-2.353 0-.944-.035-1.732-.107-2.363-.072-.632-.202-1.107-.391-1.426-.188-.326-.462-.489-.82-.489-.358 0-.635.163-.83.489-.189.319-.319.794-.391 1.426-.065.631-.097 1.419-.097 2.363Z" fill="#1F1E1E"/>
        <path fill="transparent" d="M15 0h127v93H15z"/>
    </g>
    <g class="scene__table">
        <g class="scene__table-group" stroke="#1F1E1E">
            <path d="M27.5 185.5h40v93h-40z"/>
            <circle cx="12" cy="197" r="11.5"/>
            <circle cx="83" cy="198" r="11.5"/>
            <circle cx="12" cy="230" r="11.5"/>
            <circle cx="83" cy="231" r="11.5"/>
            <circle cx="12" cy="263" r="11.5"/>
            <circle cx="83" cy="264" r="11.5"/>
            <circle cx="48" cy="294" r="11.5"/>
        </g>
        <path class="scene__table-num" d="M45.2 241h-3.917v-7.559c0-.918.02-1.757.059-2.519-.241.293-.54.599-.899.918l-1.62 1.338-2.003-2.461 4.903-3.994h3.476V241Zm11.718 0h-3.916v-7.559c0-.918.02-1.757.058-2.519a8.36 8.36 0 0 1-.898.918l-1.621 1.338-2.002-2.461 4.902-3.994h3.477V241Z" fill="#1F1E1E"/>
        <path opacity=".01" fill="transparent" d="M0 185h95v121H0z"/>
    </g>
</g></symbol></svg>